<?xml version="1.0" encoding="utf-8"?>
<!-- Generator: Adobe Illustrator 25.0.1, SVG Export Plug-In . SVG Version: 6.00 Build 0)  -->
<svg version="1.1" id="Capa_1" xmlns="http://www.w3.org/2000/svg" xmlns:xlink="http://www.w3.org/1999/xlink" x="0px" y="0px"
	 viewBox="0 0 184.3 270" style="enable-background:new 0 0 184.3 270;" xml:space="preserve">
<style type="text/css">
	.st0{fill-rule:evenodd;clip-rule:evenodd;fill:#344B5F;}
	.st1{fill-rule:evenodd;clip-rule:evenodd;fill:#327CB8;}
	.st2{fill-rule:evenodd;clip-rule:evenodd;fill:#212E3A;}
	.st3{fill-rule:evenodd;clip-rule:evenodd;fill:#3C546C;}
	.st4{fill-rule:evenodd;clip-rule:evenodd;fill:#42A5F5;}
	.st5{fill-rule:evenodd;clip-rule:evenodd;fill:#CCCCCC;}
	.st6{fill-rule:evenodd;clip-rule:evenodd;fill:#2B3D4F;}
	.st7{fill-rule:evenodd;clip-rule:evenodd;fill:#21537B;}
	.st8{fill-rule:evenodd;clip-rule:evenodd;fill:#22303F;}
</style>
<g id="Grupo_3861">
	<g id="Grupo_3833">
		<path id="Trazado_4773" class="st0" d="M83.7,8.3l3.2-1.7l3.2-1.5l3.1-1.3l3.1-1.1l3-0.9l3-0.7l2.9-0.5l1.6-0.2l12.5,7.2L118,7.6
			l-2.9,0.5l-3,0.7l-3,0.9l-3.1,1.1l-3.1,1.3l-3.2,1.5l-3.2,1.7l-3.2,1.9l-3.2,2l-2.6,1.8l-12.6-7.2l2.4-1.7l3.2-2.1L83.7,8.3z"/>
		<path id="Trazado_4719" class="st1" d="M179.9,83.8l-34.9-20.1l-2.2-0.8l-2.6-0.1l-2.8,0.6l-3,1.4L15,133.6l-1.5,1l-1.5,1.1
			l-1.4,1.3l-1.4,1.4l-1.3,1.5l-1.2,1.6L5.5,143l-1.1,1.7l-1,1.8l-0.9,1.8l-0.8,1.9l-0.6,1.9L0.7,154l-0.4,1.9l-0.2,1.9L0,159.5
			v79.6l0.3,3.3l0.9,2.7l1.4,2.1l1.8,1.5L39.2,269l-1.8-1.5l-1.4-2.1l-0.9-2.7l-0.3-3.3v-79.6l0.1-1.8l0.2-1.9l0.4-1.9l0.5-1.9
			l0.6-1.9l0.8-1.9l0.9-1.8l1-1.8l1.1-1.7l1.2-1.7l1.2-1.6l1.3-1.5l1.4-1.4l1.4-1.2l1.5-1.1l1.5-1l119.4-68.8l3-1.4l2.8-0.6l2.6,0.1
			L179.9,83.8z"/>
		<path id="Trazado_4720" class="st2" d="M142,84.9l-12.1-7c-0.5-0.3-0.8-0.8-0.8-1.4c0-0.6,0.3-1.1,0.8-1.4l12.4-7.2
			c1.5-0.9,3.4-0.9,4.9,0l12.1,7c0.5,0.3,0.8,0.8,0.8,1.4c0,0.6-0.3,1.1-0.8,1.4l-12.4,7.2C145.4,85.8,143.5,85.8,142,84.9z"/>
		<path id="Trazado_4721" class="st3" d="M147.3,67.9l12,7c0.5,0.3,0.8,0.8,0.9,1.4c0,0.6-0.3,1.1-0.8,1.4l-12,7L147.3,67.9z"/>
		<path id="Trazado_4722" class="st2" d="M31.6,148.6l-12.1-6.9c-0.5-0.3-0.8-0.8-0.8-1.4c0-0.6,0.3-1.1,0.8-1.4
			c4.1-2.4,8.3-4.8,12.4-7.2c1.5-0.9,3.4-0.9,4.9,0l12.1,7c0.5,0.3,0.8,0.8,0.8,1.4c0,0.6-0.3,1.1-0.8,1.4l-12.4,7.2
			C35,149.6,33.1,149.5,31.6,148.6z"/>
		<path id="Trazado_4723" class="st3" d="M34.3,131c0.9,0,1.8,0.2,2.6,0.7l12.1,7c0.5,0.3,0.8,0.8,0.8,1.4c0,0.6-0.3,1.2-0.8,1.4
			l-12.4,7.2c-0.7,0.4-1.5,0.6-2.2,0.6V131z"/>
		<path id="Trazado_4724" class="st4" d="M169.3,84.8L49.9,153.7c-8.8,5.8-14.4,15.4-15,26v79.6c0,9.5,6.8,13.4,15,8.7l119.4-68.9
			c8.8-5.8,14.4-15.4,15-25.9V93.5C184.3,83.9,177.6,80,169.3,84.8z"/>
		<path id="Trazado_4725" class="st5" d="M121.7,172.9v26.6c-0.3,6.3-3.7,12.1-9,15.5l-3.1,1.8c-3.4,2.5-8.2,1.9-10.7-1.5
			c-1.2-1.6-1.7-3.5-1.5-5.5v-25.4c-4.4-2.8-6.8-7.7-6.4-12.9c0.6-11.9,6.9-22.8,16.9-29.2c10.6-6.1,20.1-0.6,20.1,11.6
			C127.8,160.7,125.6,167.3,121.7,172.9z"/>
		<path id="Trazado_4726" class="st3" d="M109.6,145c8.4-4.9,15.2-0.9,15.2,8.8c-0.3,6.5-2.5,12.8-6.4,18v27.6
			c-0.3,5.2-3,9.9-7.3,12.7l-3,1.8c-4,2.3-7.3,0.4-7.3-4.2v-27.6c-3.9-1-6.4-4.7-6.4-10.7C94.9,160.7,100.6,150.9,109.6,145z"/>
		<path id="Trazado_4727" class="st2" d="M132.9,36.6l-0.7-2.3l-0.8-2.2l-0.9-2.1l-1-2l-1.1-1.8l-1.3-1.6l-1.3-1.6l-0.4-0.4l0,0
			c12.1,2.6,20.4,13.1,21.7,29.8c0.1,1.5,0.2,25.4,0.2,27c0,1.2,0,2.3-0.1,3.5l-12.9-7.4C135.2,62.5,134.7,49.5,132.9,36.6z"/>
		<path id="Trazado_4728" class="st6" d="M83.7,8.3l3.2-1.7l3.2-1.5l3.1-1.3l3.1-1.1l3-0.9l3-0.7l2.9-0.5l2.8-0.3l2.8-0.1h2.7
			l2.6,0.2l2.5,0.4l2.4,0.6l2.4,0.8l2.3,0.9L128,4l12.8,7.2l-2.2-1.1l-2.3-0.9L134,8.4l-2.5-0.6L129,7.4l-2.6-0.2h-2.7l-2.8,0.1
			L118,7.7l-2.9,0.5l-3,0.7l-3,0.9l-3.1,1.1l-3.1,1.3l-3.2,1.5l-3.2,1.7l-3.2,1.9l-3.2,2L87,21.5l-3.1,2.3l-3,2.5l-3,2.6L75,31.7
			l-2.8,2.9l-2.8,3l-2.7,3.1L64,43.8l-2.5,3.2L59,50.4l-2.4,3.4l-2.3,3.5l-2.2,3.6l-2.1,3.6l-2,3.7l-1.9,3.7l-1.7,3.7l-1.6,3.8
			L41.4,83l-1.4,3.8l-1.2,3.8l-1.1,3.8l-1,3.8l-0.8,3.8l-0.7,3.8l-0.6,3.8l-0.4,3.7l-0.2,26l-0.1,3.7v0.9v0.9v0.9v0.9l0.1,0.9
			l0.1,0.8l-12.8-7.4v-0.6v-0.9v-0.9v-0.9v-1.8l0.1-25.9l0.2-3.7l0.4-3.7l0.6-3.8l0.7-3.8l0.8-3.8l1-3.8l1.1-3.9l1.2-3.8l1.4-3.8
			l1.5-3.8l1.6-3.8l1.8-3.7l1.8-3.7l2-3.7l2.1-3.6l2.2-3.5l2.3-3.5l2.4-3.4l2.5-3.3l2.5-3.2l2.6-3.2l2.7-3l2.8-3l2.8-2.9l2.8-2.7
			l3-2.6l3.1-2.5l3.1-2.4l3.1-2.2l3.2-2L83.7,8.3z"/>
		<path id="Trazado_4729" class="st3" d="M96.5,15.4c34.6-19.4,62.6-3.7,62.6,35.1v24.8v0.7l-11.8,6.8c0.1-1.2,0.1-2.3,0.1-3.5
			c0-1.6-0.1-25.5-0.2-27c-2.2-27.9-24-38.6-50.6-23.7c-27,15.2-49.1,51.2-50.7,81.9c-0.1,1.2-0.1,24.7-0.1,25.8
			c0,1.7,0.1,3.4,0.2,5l-11.9,6.8c-0.1-1.7-0.2-3.4-0.2-5.2s0.1-26.1,0.2-28C36.7,77.4,63.7,33.9,96.5,15.4L96.5,15.4z"/>
		<path id="Trazado_4730" class="st6" d="M112.9,210.9c-0.6,0.5-1.2,0.9-1.8,1.3L108,214c-4,2.3-7.3,0.4-7.3-4.2v-5.9L112.9,210.9z"
			/>
		<path id="Trazado_4731" class="st6" d="M109.6,145c8.4-4.9,15.2-0.9,15.2,8.8c-0.1,4.1-1.1,8.1-2.8,11.9l-3.6,6.2l-21.3-12.3
			C99.7,153.6,104.1,148.5,109.6,145z"/>
		<path id="Trazado_4772" class="st7" d="M2.9,148.8l-0.1,0.3L2,150.9l-0.6,1.9l-0.5,1.9l-0.4,1.9l-0.2,1.8l-0.1,1.8v79.2l0.3,3.3
			l0.9,2.7l1.4,2.1l1.8,1.5l34.6,20l-1.8-1.5l-1.4-2.1l-0.9-2.7l-0.3-3.3v-79.2l0.1-1.8l0.2-1.8l0.4-1.9l0.5-1.9l0.6-1.9l0.7-1.9
			l0.2-0.3L2.9,148.8z"/>
		<path id="Trazado_4774" class="st8" d="M52.6,60.2l-0.3,0.6l-2.1,3.6l-2,3.7l-1.9,3.7l-1.8,3.7l-1.6,3.8L41.5,83l-1.4,3.8
			l-1.2,3.8l-1.1,3.8l-1,3.8l-0.8,3.8l-0.7,3.8l-0.6,3.8l-0.4,3.7v0.3l-12.8-7.4v-0.1l0.4-3.7l0.6-3.8l0.7-3.8l0.8-3.8l1-3.8
			l1.1-3.8l1.3-3.8l1.4-3.8l1.5-3.8l1.6-3.8l1.8-3.7l1.8-3.7l2-3.7l2.1-3.6l0.4-0.7L52.6,60.2z"/>
	</g>
</g>
</svg>
