<?xml version="1.0" encoding="utf-8"?>
<!-- Generator: Adobe Illustrator 25.0.1, SVG Export Plug-In . SVG Version: 6.00 Build 0)  -->
<svg version="1.1" id="Capa_1" xmlns="http://www.w3.org/2000/svg" xmlns:xlink="http://www.w3.org/1999/xlink" x="0px" y="0px"
	 viewBox="0 0 195.6 270" style="enable-background:new 0 0 195.6 270;" xml:space="preserve">
<style type="text/css">
	.st0{fill:#327CB8;}
	.st1{fill:#42A5F5;}
	.st2{fill:url(#Trazado_4690_1_);}
	.st3{fill:#FBFBFB;}
	.st4{fill:#D6D6D6;}
	.st5{fill:#F0F0F0;}
	.st6{fill:#F8F8F9;}
	.st7{fill:#333333;}
</style>
<g id="Grupo_3858">
	<g id="Grupo_3292">
		<g id="Grupo_3266">
			<path id="Trazado_4688" class="st0" d="M110.2,183.9l-29.7-10.7l59.6-34.7L110.2,183.9z"/>
			<path id="Trazado_4689" class="st1" d="M21.7,110.6l144.6-74.7c11.3-4.7,20.6,5.1,23.8,6.8c3.8,2.5,5.9,7,5.3,11.5l-55.3,84.3
				l-59.6,34.7l-55.8-20l-10.9-5.1C6.2,131.5,13.4,115.3,21.7,110.6z"/>
			<g id="Grupo_3265">
				
					<linearGradient id="Trazado_4690_1_" gradientUnits="userSpaceOnUse" x1="-820.4673" y1="2215.3093" x2="-822.9973" y2="2218.8193" gradientTransform="matrix(55.24 0 0 68.81 45462.9023 -152424.0781)">
					<stop  offset="0" style="stop-color:#84B0D4"/>
					<stop  offset="5.000000e-02" style="stop-color:#84B0D4"/>
					<stop  offset="0.19" style="stop-color:#5B96C6"/>
					<stop  offset="0.57" style="stop-color:#327CB8"/>
					<stop  offset="0.7" style="stop-color:#265D8A"/>
					<stop  offset="0.81" style="stop-color:#193E5C"/>
					<stop  offset="1" style="stop-color:#193E5C"/>
				</linearGradient>
				<path id="Trazado_4690" class="st2" d="M17.7,108.3l135.4-78.6c4.9-2.8,10,4,13.6,3.2c10.2-1.8,20.4,2.8,25.8,11.7
					c-7.2-6.2-19.6-11.3-27-7.7L26,114.7c-9.8,5.5-13.4,26-1.3,38.5v104.3c-0.4,4.4,1.7,8.8,5.3,11.3L5.3,254.5
					c-3.6-2.5-5.6-6.9-5.1-11.3L0,139C0.6,126.5,7.2,115.1,17.7,108.3z"/>
			</g>
		</g>
		<g id="Grupo_3267">
			<path id="Trazado_4691" class="st0" d="M9.6,115.2l10.1,6.5L97.6,18.6l-12.3-7.1L9.6,115.2z"/>
			<path id="Trazado_4692" class="st0" d="M85.3,11.5l12.3,7.1L165.4,37l11.3-3.8L85.3,11.5z"/>
			<path id="Trazado_4693" class="st0" d="M97.6,18.6l80.7,18.3L19.7,121.7L97.6,18.6z"/>
		</g>
		<g id="Grupo_3291">
			<path id="Trazado_4694" class="st3" d="M149.7,138.6l14.2,8.2L57.9,207.9l-14.1-8.2L149.7,138.6z"/>
			<path id="Trazado_4695" class="st4" d="M43.8,199.8l14.1,8.2V69.3l-14.1-8.2V199.8z"/>
			<path id="Trazado_4696" class="st5" d="M43.8,61.1L58,69.3L163.8,8.1L149.7,0L43.8,61.1z"/>
			<g id="Grupo_3290">
				<path id="Trazado_4697" class="st6" d="M163.8,8.2v138.6L57.9,207.9V69.3L163.8,8.2z"/>
				<g id="Grupo_3289">
					<g id="Grupo_3288">
						<g id="Grupo_3287">
							<g id="Grupo_3286">
								<g id="Grupo_3270">
									<g id="Grupo_3269">
										<g id="Grupo_3268">
											<path id="Trazado_4698" class="st7" d="M76.4,91.7l68.9-39.8v-5.6L76.4,86.2V91.7z"/>
										</g>
									</g>
								</g>
								<g id="Grupo_3273">
									<g id="Grupo_3272">
										<g id="Grupo_3271">
											<path id="Trazado_4699" class="st7" d="M76.4,107.3l68.9-39.8V62l-68.9,39.8V107.3z"/>
										</g>
									</g>
								</g>
								<g id="Grupo_3276">
									<g id="Grupo_3275">
										<g id="Grupo_3274">
											<path id="Trazado_4700" class="st7" d="M76.4,122.9l68.9-39.8v-5.5l-68.9,39.8V122.9z"/>
										</g>
									</g>
								</g>
								<g id="Grupo_3279">
									<g id="Grupo_3278">
										<g id="Grupo_3277">
											<path id="Trazado_4701" class="st7" d="M76.4,138.5l68.9-39.8v-5.5L76.4,133V138.5z"/>
										</g>
									</g>
								</g>
								<g id="Grupo_3282">
									<g id="Grupo_3281">
										<g id="Grupo_3280">
											<path id="Trazado_4702" class="st7" d="M76.4,154.1l68.9-39.8v-5.5l-68.9,39.8V154.1z"/>
										</g>
									</g>
								</g>
								<g id="Grupo_3285">
									<g id="Grupo_3284">
										<g id="Grupo_3283">
											<path id="Trazado_4703" class="st7" d="M76.4,169.7l68.9-39.8v-5.6l-68.9,39.8V169.7z"/>
										</g>
									</g>
								</g>
							</g>
						</g>
					</g>
				</g>
			</g>
		</g>
		<path id="Trazado_4704" class="st0" d="M80.5,173.2l-55.8,84.3V153.2C24.7,151.5,80.5,173.2,80.5,173.2z"/>
		<path id="Trazado_4705" class="st0" d="M195.6,158.5l-55.6-20l55.5-84.3L195.6,158.5z"/>
		<path id="Trazado_4706" class="st1" d="M24.7,257.5c0,11.1,8.1,15.8,17.7,10L178,189.2c10.4-6.9,16.9-18.2,17.7-30.7l-55.6-20
			l-29.6-10.6l-30,45.4L24.7,257.5z"/>
	</g>
</g>
</svg>
